<svg width="32" height="32" viewBox="0 0 32 32" fill="none" xmlns="http://www.w3.org/2000/svg">
<path d="M6.66667 8C6.66667 7.26267 7.264 6.66667 8 6.66667H12C12.736 6.66667 13.3333 7.26267 13.3333 8C13.3333 8.73733 12.736 9.33333 12 9.33333H8C7.264 9.33333 6.66667 8.73733 6.66667 8ZM14.6667 12H8C7.264 12 6.66667 12.596 6.66667 13.3333C6.66667 14.0707 7.264 14.6667 8 14.6667H14.6667C15.4027 14.6667 16 14.0707 16 13.3333C16 12.596 15.4027 12 14.6667 12ZM14.6667 17.3333H8C7.264 17.3333 6.66667 17.9293 6.66667 18.6667C6.66667 19.404 7.264 20 8 20H14.6667C15.4027 20 16 19.404 16 18.6667C16 17.9293 15.4027 17.3333 14.6667 17.3333ZM31.9187 6.20933C31.7267 5.68267 31.2253 5.33333 30.6667 5.33333H26.6653L25.2493 1.36C25.0547 0.838667 24.556 0.492 24 0.492C23.444 0.492 22.944 0.838667 22.7507 1.36L21.3347 5.33333H17.3333C16.7747 5.33333 16.2747 5.68267 16.0827 6.20667C15.8893 6.732 16.0453 7.32 16.472 7.68267L19.6413 10.2627L18.3867 14.284C18.2173 14.824 18.4067 15.412 18.8587 15.752C19.0947 15.9293 19.376 16.0187 19.6587 16.0187C19.9173 16.0187 20.176 15.944 20.4 15.7933L24.0107 13.3773L27.6827 15.768C28.156 16.076 28.7747 16.052 29.224 15.7067C29.6733 15.3613 29.8547 14.7693 29.676 14.232L28.3707 10.2587L31.5253 7.68933C31.9533 7.328 32.1107 6.73867 31.9187 6.212V6.20933ZM29.3333 26.6667V27.3333C29.3333 29.9067 27.24 32 24.6667 32H4.66533C2.09333 32 0 29.9067 0 27.3333V6.66667C0 2.99067 2.99067 0 6.66667 0H17.3333C18.0693 0 18.6667 0.596 18.6667 1.33333C18.6667 2.07067 18.0693 2.66667 17.3333 2.66667H6.66667C4.46133 2.66667 2.66667 4.46133 2.66667 6.66667V27.3333C2.66667 28.436 3.564 29.3333 4.66667 29.3333C5.76933 29.3333 6.66667 28.436 6.66667 27.3333V26.6667C6.66667 24.4613 8.46133 22.6667 10.6667 22.6667H22.6667V18.6667C22.6667 17.9293 23.264 17.3333 24 17.3333C24.736 17.3333 25.3333 17.9293 25.3333 18.6667V22.6667C27.5387 22.6667 29.3333 24.4613 29.3333 26.6667ZM26.6667 26.6667C26.6667 25.9307 26.068 25.3333 25.3333 25.3333H10.6667C9.932 25.3333 9.33333 25.9307 9.33333 26.6667V27.3333C9.33333 28.048 9.17067 28.7267 8.88267 29.3333H24.6667C25.7693 29.3333 26.6667 28.436 26.6667 27.3333V26.6667Z" fill="#FF8800"/>
</svg>
