<svg width="32" height="32" viewBox="0 0 32 32" fill="none" xmlns="http://www.w3.org/2000/svg">
<path d="M27.0268 10.3946L22.2135 12.896L16.3575 15.8773C16.2482 15.9382 16.1252 15.9702 16.0001 15.9702C15.875 15.9702 15.752 15.9382 15.6428 15.8773L9.78812 12.896L4.97345 10.3946C4.84279 10.3285 4.73303 10.2275 4.65634 10.1027C4.57966 9.97796 4.53906 9.83439 4.53906 9.68795C4.53906 9.54152 4.57966 9.39795 4.65634 9.2732C4.73303 9.14846 4.84279 9.04741 4.97345 8.98129L15.6588 3.74796C15.7647 3.69472 15.8816 3.66699 16.0001 3.66699C16.1187 3.66699 16.2355 3.69472 16.3415 3.74796L27.0268 8.98129C27.1574 9.04741 27.2672 9.14846 27.3439 9.2732C27.4206 9.39795 27.4612 9.54152 27.4612 9.68795C27.4612 9.83439 27.4206 9.97796 27.3439 10.1027C27.2672 10.2275 27.1574 10.3285 27.0268 10.3946Z" stroke="#FF8800" stroke-width="2" stroke-linecap="round" stroke-linejoin="round"/>
<path d="M9.78678 12.8958L4.97345 15.1931C4.84279 15.2592 4.73303 15.3603 4.65634 15.485C4.57966 15.6098 4.53906 15.7533 4.53906 15.8998C4.53906 16.0462 4.57966 16.1898 4.65634 16.3145C4.73303 16.4393 4.84279 16.5403 4.97345 16.6064L9.78678 19.1078L15.6428 22.0891C15.752 22.15 15.875 22.182 16.0001 22.182C16.1252 22.182 16.2482 22.15 16.3574 22.0891L22.2121 19.1078L27.0268 16.6078C27.1426 16.537 27.2384 16.4377 27.3048 16.3193C27.3712 16.201 27.4061 16.0675 27.4061 15.9318C27.4061 15.796 27.3712 15.6625 27.3048 15.5442C27.2384 15.4258 27.1426 15.3265 27.0268 15.2558L22.2134 12.8958" stroke="#FF8800" stroke-width="2" stroke-linecap="round" stroke-linejoin="round"/>
<path d="M9.78678 19.1067L4.97345 21.4067C4.84279 21.4728 4.73303 21.5739 4.65634 21.6986C4.57966 21.8234 4.53906 21.9669 4.53906 22.1134C4.53906 22.2598 4.57966 22.4034 4.65634 22.5281C4.73303 22.6529 4.84279 22.7539 4.97345 22.82L15.6428 28.24C15.752 28.301 15.875 28.333 16.0001 28.333C16.1252 28.333 16.2482 28.301 16.3574 28.24L27.0268 22.82C27.1426 22.7493 27.2384 22.65 27.3048 22.5316C27.3712 22.4132 27.4061 22.2798 27.4061 22.144C27.4061 22.0083 27.3712 21.8748 27.3048 21.7564C27.2384 21.6381 27.1426 21.5387 27.0268 21.468L22.2134 19.108" stroke="#FF8800" stroke-width="2" stroke-linecap="round" stroke-linejoin="round"/>
</svg>
