<svg width="32" height="32" viewBox="0 0 32 32" fill="none" xmlns="http://www.w3.org/2000/svg">
<g clip-path="url(#clip0_7305_491)">
<path d="M18.6668 13.0833C16.0935 13.0833 14.0002 15.1767 14.0002 17.75C14.0002 20.3233 16.0935 22.4167 18.6668 22.4167C21.2402 22.4167 23.3335 20.3233 23.3335 17.75C23.3335 15.1767 21.2402 13.0833 18.6668 13.0833ZM18.6668 19.75C17.5642 19.75 16.6668 18.8527 16.6668 17.75C16.6668 16.6473 17.5642 15.75 18.6668 15.75C19.7695 15.75 20.6668 16.6473 20.6668 17.75C20.6668 18.8527 19.7695 19.75 18.6668 19.75ZM29.2655 7.13133L24.6202 2.48333C22.8562 0.720667 20.5122 -0.25 18.0202 -0.25H12.0002C8.32416 -0.25 5.3335 2.74067 5.3335 6.41667V25.0833C5.3335 28.7593 8.32416 31.75 12.0002 31.75H25.3335C29.0095 31.75 32.0002 28.7593 32.0002 25.0833V13.73C32.0002 11.2353 31.0282 8.894 29.2655 7.13133ZM27.3802 9.018C27.8042 9.44067 28.1628 9.91133 28.4535 10.418H22.6655C21.9295 10.418 21.3322 9.81933 21.3322 9.08467V3.29533C21.8388 3.586 22.3095 3.94467 22.7335 4.36867L27.3788 9.01667L27.3802 9.018ZM14.8962 29.0847C15.4468 27.5327 16.9282 26.418 18.6668 26.418C20.4055 26.418 21.8868 27.5327 22.4375 29.0847H14.8962ZM29.3335 25.0847C29.3335 27.29 27.5388 29.0847 25.3335 29.0847H25.1988C24.5788 26.046 21.8855 23.7513 18.6668 23.7513C15.4482 23.7513 12.7535 26.046 12.1348 29.0847H12.0002C9.79483 29.0847 8.00016 27.29 8.00016 25.0847V6.41667C8.00016 4.21133 9.79483 2.41667 12.0002 2.41667H18.0202C18.2375 2.41667 18.4535 2.42733 18.6668 2.44733V9.08333C18.6668 11.2887 20.4615 13.0833 22.6668 13.0833H29.3028C29.3228 13.2967 29.3335 13.5127 29.3335 13.73V25.0847Z" fill="#FF8800"/>
</g>
<defs>
<clipPath id="clip0_7305_491">
<rect width="32" height="32" fill="white"/>
</clipPath>
</defs>
</svg>
