<svg width="32" height="32" viewBox="0 0 32 32" fill="none" xmlns="http://www.w3.org/2000/svg">
<g clip-path="url(#clip0_7305_462)">
<path d="M14 8H18C19.4707 8 20.6667 6.804 20.6667 5.33333V2.66667C20.6667 1.196 19.4707 0 18 0H14C12.5293 0 11.3333 1.196 11.3333 2.66667V5.33333C11.3333 6.804 12.5293 8 14 8ZM14 2.66667H18V5.33333H14V2.66667ZM18 24H14C12.5293 24 11.3333 25.196 11.3333 26.6667V29.3333C11.3333 30.804 12.5293 32 14 32H18C19.4707 32 20.6667 30.804 20.6667 29.3333V26.6667C20.6667 25.196 19.4707 24 18 24ZM18 29.3333H14V26.6667H18V29.3333ZM29.3333 24H25.3333C23.8627 24 22.6667 25.196 22.6667 26.6667V29.3333C22.6667 30.804 23.8627 32 25.3333 32H29.3333C30.804 32 32 30.804 32 29.3333V26.6667C32 25.196 30.804 24 29.3333 24ZM29.3333 29.3333H25.3333V26.6667H29.3333V29.3333ZM6.66667 24H2.66667C1.196 24 0 25.196 0 26.6667V29.3333C0 30.804 1.196 32 2.66667 32H6.66667C8.13733 32 9.33333 30.804 9.33333 29.3333V26.6667C9.33333 25.196 8.13733 24 6.66667 24ZM6.66667 29.3333H2.66667V26.6667H6.66667V29.3333ZM6 21.3333H3.33333V18C3.33333 16.1613 4.82933 14.6667 6.66667 14.6667H14.6667V10.6667H17.3333V14.6667H25.3333C27.172 14.6667 28.6667 16.1613 28.6667 18V21.3333H26V18C26 17.6333 25.7 17.3333 25.3333 17.3333H17.3333V21.3333H14.6667V17.3333H6.66667C6.29867 17.3333 6 17.6333 6 18V21.3333Z" fill="#FF8800"/>
</g>
<defs>
<clipPath id="clip0_7305_462">
<rect width="32" height="32" fill="white"/>
</clipPath>
</defs>
</svg>
