<svg width="32" height="32" viewBox="0 0 32 32" fill="none" xmlns="http://www.w3.org/2000/svg">
<g clip-path="url(#clip0_7305_485)">
<path d="M30.5333 11.94C29.6327 11.4836 28.5511 11.5787 27.744 12.1853L25.3 14C24.9535 10.5955 22.0887 8.00427 18.6667 7.99996H18.5534L13.0574 2.50527C12.3094 1.75208 11.2909 1.32996 10.2294 1.33327H1.33331C0.596938 1.33327 0 1.93027 0 2.66665C0 3.40302 0.596938 3.99996 1.33331 3.99996H10.2293C10.5828 4.0009 10.9215 4.14127 11.172 4.39065L14.7813 7.99996H6.66669C2.98662 8.0044 0.0044375 10.9866 0 14.6666V25.3333C0.0044375 29.0133 2.98662 31.9956 6.66669 32H18.6667C22.0888 31.9956 24.9535 29.4045 25.3 26L27.74 27.8186C28.9182 28.7023 30.5897 28.4635 31.4733 27.2853C31.8195 26.8238 32.0066 26.2623 32.0066 25.6853V14.324C32.0101 13.3134 31.4387 12.3888 30.5333 11.94ZM22.6667 25.3333C22.6667 27.5424 20.8758 29.3333 18.6667 29.3333H6.66669C4.45756 29.3333 2.66669 27.5424 2.66669 25.3333V14.6666C2.66669 12.4575 4.45756 10.6666 6.66669 10.6666H18.6667C20.8758 10.6666 22.6667 12.4575 22.6667 14.6666V25.3333ZM29.3333 25.676L25.3333 22.6946V17.3053L29.3333 14.324V25.676Z" fill="#FF8800"/>
</g>
<defs>
<clipPath id="clip0_7305_485">
<rect width="32" height="32" fill="white"/>
</clipPath>
</defs>
</svg>
