<svg width="19" height="19" viewBox="0 0 19 19" fill="none" xmlns="http://www.w3.org/2000/svg">
<path fill-rule="evenodd" clip-rule="evenodd" d="M0.851562 9.15039C0.851562 5.55525 0.851562 3.75768 1.70825 2.46294C2.09081 1.88478 2.58595 1.38964 3.16412 1.00708C4.45885 0.150391 6.25642 0.150391 9.85156 0.150391C13.4467 0.150391 15.2443 0.150391 16.539 1.00708C17.1172 1.38964 17.6123 1.88478 17.9949 2.46294C18.8516 3.75768 18.8516 5.55525 18.8516 9.15039C18.8516 12.7455 18.8516 14.5431 17.9949 15.8378C17.6123 16.416 17.1172 16.9111 16.539 17.2937C15.2443 18.1504 13.4467 18.1504 9.85156 18.1504C6.25642 18.1504 4.45885 18.1504 3.16412 17.2937C2.58595 16.9111 2.09081 16.416 1.70825 15.8378C0.851562 14.5431 0.851562 12.7455 0.851562 9.15039ZM14.5108 9.14983C14.5108 11.7231 12.4248 13.8092 9.85143 13.8092C7.27811 13.8092 5.19202 11.7231 5.19202 9.14983C5.19202 6.57651 7.27811 4.49042 9.85143 4.49042C12.4248 4.49042 14.5108 6.57651 14.5108 9.14983ZM9.85143 12.2328C11.5541 12.2328 12.9344 10.8525 12.9344 9.14983C12.9344 7.44713 11.5541 6.06682 9.85143 6.06682C8.14873 6.06682 6.76843 7.44713 6.76843 9.14983C6.76843 10.8525 8.14873 12.2328 9.85143 12.2328ZM14.6948 5.35194C15.2995 5.35194 15.7897 4.86177 15.7897 4.25712C15.7897 3.65246 15.2995 3.16229 14.6948 3.16229C14.0902 3.16229 13.6 3.65246 13.6 4.25712C13.6 4.86177 14.0902 5.35194 14.6948 5.35194Z" fill="#FF8A00"/>
</svg>
