<svg width="19" height="18" viewBox="0 0 19 18" fill="none" xmlns="http://www.w3.org/2000/svg">
<path d="M0.851562 2.57142C0.851562 1.99421 1.05427 1.51802 1.45967 1.14285C1.86507 0.767662 2.39211 0.580078 3.04075 0.580078C3.67782 0.580078 4.19326 0.764771 4.58708 1.13419C4.99248 1.51514 5.19519 2.01152 5.19519 2.62337C5.19519 3.17748 4.99829 3.63923 4.60446 4.00865C4.19906 4.3896 3.66623 4.58008 3.006 4.58008H2.98863C2.35156 4.58008 1.83612 4.3896 1.4423 4.00865C1.04847 3.6277 0.851562 3.14861 0.851562 2.57142ZM1.07743 17.7229V6.15583H4.93457V17.7229H1.07743ZM7.07164 17.7229H10.9288V11.2641C10.9288 10.86 10.9751 10.5483 11.0678 10.329C11.2299 9.93649 11.4761 9.60459 11.8062 9.33332C12.1363 9.06203 12.5504 8.9264 13.0485 8.9264C14.3458 8.9264 14.9944 9.79796 14.9944 11.5411V17.7229H18.8516V11.0909C18.8516 9.38238 18.4462 8.08657 17.6353 7.20345C16.8245 6.32034 15.7531 5.87878 14.4211 5.87878C12.9269 5.87878 11.7628 6.51947 10.9288 7.80085V7.83549H10.9114L10.9288 7.80085V6.15583H7.07164C7.0948 6.52524 7.10639 7.67386 7.10639 9.60172C7.10639 11.5296 7.0948 14.2366 7.07164 17.7229Z" fill="#FF8A00"/>
</svg>
