<svg width="21" height="19" viewBox="0 0 21 19" fill="none" xmlns="http://www.w3.org/2000/svg">
<path d="M10.8387 16.1306L6.77646 16.0546C5.46122 16.0282 4.1427 16.081 2.85324 15.8069C0.891672 15.3974 0.752708 13.3895 0.607296 11.7053C0.406934 9.33741 0.4845 6.92659 0.862609 4.57852C1.07606 3.261 1.9161 2.47483 3.21518 2.38928C7.60053 2.07881 12.015 2.1156 16.3907 2.26045C16.8528 2.27373 17.3181 2.3463 17.7738 2.42892C20.0231 2.83183 20.0779 5.10723 20.2237 7.02269C20.3691 8.95791 20.3078 10.9031 20.0298 12.8251C19.8068 14.4165 19.3802 15.7511 17.5798 15.8799C15.3241 16.0484 13.1201 16.184 10.858 16.1408C10.8581 16.1306 10.8451 16.1306 10.8387 16.1306ZM8.45048 12.1016C10.1504 11.1042 11.8179 10.1234 13.508 9.13266C11.805 8.13525 10.1407 7.15446 8.45048 6.16374V12.1016Z" fill="#FF8A00"/>
</svg>
