<svg width="1080" height="403" viewBox="0 0 1080 403" fill="none" xmlns="http://www.w3.org/2000/svg">
<path d="M340.3 239.39C340.4 290.61 299.33 332.62 247.69 334.15H75V296.1H247.69C279.31 294.78 303.85 268.28 302.52 236.95C301.24 207.5 277.42 183.85 247.69 182.63H150.72V144.58H247.64C299.33 146.16 340.4 188.17 340.3 239.39ZM329.57 68.9001L322.54 85.1801L315.82 68.9001H306.01L317.97 92.8101V106.34H327.16V92.8101L339.43 68.9001H329.57ZM310.22 106.28H300.42L298.32 99.2101H286.05L283.89 106.28H274.34L287.84 68.8401H296.41L310.22 106.28ZM296.1 92.5001L292.1 79.6301L288.1 92.5001H296.1ZM245.54 220.37H113.04V106.9H231.73V68.8501H75V258.36H245.54C250.57 258.31 255.4 256.33 259.04 252.87C262.58 249.26 264.58 244.43 264.58 239.39C264.53 228.97 256.06 220.47 245.54 220.37ZM272.79 86.7001V88.5301C272.89 91.7301 272.12 94.8901 270.63 97.7401C269.24 100.44 267.14 102.67 264.52 104.2C261.8 105.73 258.72 106.49 255.64 106.34H243.37V68.9001H255.33C258.46 68.8001 261.49 69.5601 264.21 71.0401C266.83 72.5701 268.98 74.8001 270.32 77.5001C272.08 80.2401 272.95 83.4501 272.79 86.7001ZM263.61 86.7001C263.87 83.8001 263.1 80.8501 261.45 78.4101C259.96 76.5301 257.7 75.5101 255.34 75.6601H252.26V99.5701H255.34C257.65 99.6701 259.81 98.6501 261.14 96.8201C262.78 94.3801 263.55 91.4801 263.3 88.5301V86.7001H263.61Z" fill="white"/>
<path d="M999.09 189.89C995.15 182.13 989.57 176.03 982.35 171.61C975.13 167.18 966.61 164.97 956.79 164.97C947.15 164.97 938.72 167.15 931.5 171.52C924.28 175.83 918.67 181.89 914.67 189.71C910.67 197.47 908.67 206.48 908.67 216.73C908.67 226.92 910.61 235.92 914.49 243.75C918.43 251.51 924.01 257.61 931.23 262.03C938.45 266.46 946.97 268.67 956.79 268.67C966.55 268.67 975.04 266.49 982.26 262.12C989.48 257.69 995.06 251.6 999 243.84C1003 236.02 1005 226.98 1005 216.73C1005 206.59 1003.03 197.65 999.09 189.89ZM977.8 241.28C973.19 247.59 966.19 250.74 956.79 250.74C947.63 250.74 940.69 247.65 935.96 241.46C931.23 235.27 928.87 227.03 928.87 216.72C928.87 210.05 929.87 204.2 931.87 199.16C933.87 194.07 936.93 190.09 941.06 187.24C945.18 184.33 950.43 182.87 956.8 182.87C966.08 182.87 973.05 185.96 977.72 192.15C982.45 198.27 984.81 206.46 984.81 216.71C984.81 226.73 982.47 234.91 977.8 241.28Z" fill="white"/>
<path d="M886.82 167.69H867.81V265.93H886.82V167.69Z" fill="white"/>
<path d="M886.82 133.13H867.81V151.59H886.82V133.13Z" fill="white"/>
<path d="M837.31 245.83H817.21V265.93H837.31V245.83Z" fill="white"/>
<path d="M767.25 241.53L738.21 167.69H718.38L758.13 265.51L741.94 309.59H760.04L814.26 167.69H794.97L767.25 241.53Z" fill="white"/>
<path d="M707.09 183.7C704.06 177.21 699.27 172.48 692.72 169.51C686.23 166.48 678.59 164.96 669.8 164.96C658.46 164.96 649.36 167.45 642.51 172.42C635.72 177.39 631.11 184.09 628.68 192.52L646.42 197.98C648.12 192.46 651.12 188.52 655.42 186.16C659.73 183.73 664.46 182.52 669.61 182.52C677.8 182.52 683.56 184.4 686.89 188.16C689.85 191.39 691.48 196.14 691.76 202.41C688.02 202.93 684.31 203.46 680.52 203.98C674.46 204.83 668.66 205.74 663.15 206.71C657.63 207.68 652.69 208.8 648.32 210.08C643.29 211.72 639.04 213.87 635.59 216.54C632.13 219.15 629.53 222.33 627.77 226.09C626.01 229.85 625.13 234.22 625.13 239.19C625.13 244.53 626.37 249.44 628.86 253.93C631.41 258.36 635.14 261.93 640.05 264.66C644.96 267.33 651.06 268.66 658.33 268.66C667.49 268.66 675.19 266.84 681.43 263.2C686.15 260.43 690.25 256.59 693.71 251.68V265.93H710.54V205.44C710.54 201.32 710.36 197.47 709.99 193.89C709.64 190.31 708.67 186.92 707.09 183.7ZM689.63 233.64C688.9 236.85 687.36 239.95 684.99 242.92C682.63 245.89 679.5 248.35 675.62 250.29C671.74 252.17 667.1 253.11 661.7 253.11C657.64 253.11 654.3 252.47 651.69 251.2C649.08 249.93 647.14 248.23 645.87 246.11C644.6 243.93 643.96 241.56 643.96 239.02C643.96 236.41 644.54 234.2 645.69 232.38C646.9 230.56 648.51 229.01 650.51 227.74C652.57 226.47 654.91 225.37 657.51 224.47C660.6 223.5 664.12 222.68 668.06 222.01C672.06 221.28 676.52 220.55 681.43 219.83C684.58 219.36 687.97 218.86 691.56 218.32C691.52 219.93 691.44 221.75 691.34 223.84C691.23 227.45 690.66 230.73 689.63 233.64Z" fill="white"/>
<path d="M586.04 174.48C584.97 173.53 583.86 172.62 582.67 171.79C576.36 167.24 568.57 164.97 559.29 164.97C550.07 164.97 542.1 167.24 535.37 171.79C528.7 176.28 523.55 182.43 519.91 190.25C516.27 198.01 514.45 206.84 514.45 216.72C514.45 226.54 516.24 235.4 519.82 243.28C523.46 251.1 528.58 257.29 535.19 261.84C541.86 266.39 549.77 268.66 558.93 268.66C568.33 268.66 576.21 266.39 582.58 261.84C584.63 260.36 586.49 258.69 588.22 256.88V265.93H605.14V134.95H586.04V174.48ZM585.5 234.73C583.68 239.95 580.8 244.04 576.86 247.01C572.92 249.98 567.82 251.47 561.58 251.47C555.52 251.47 550.48 249.92 546.48 246.83C542.54 243.74 539.57 239.58 537.57 234.37C535.63 229.09 534.66 223.21 534.66 216.72C534.66 210.29 535.63 204.47 537.57 199.26C539.57 194.04 542.6 189.89 546.67 186.8C550.73 183.71 555.92 182.16 562.22 182.16C568.16 182.16 573.04 183.62 576.86 186.53C580.74 189.44 583.59 193.5 585.41 198.72C587.29 203.94 588.23 209.94 588.23 216.73C588.23 223.52 587.32 229.52 585.5 234.73Z" fill="white"/>
<path d="M477.26 187.43C470.89 183.67 463.65 181.79 455.52 181.79C450.79 181.79 446.03 182.7 441.24 184.52C438.26 185.65 435.58 187.13 433.11 188.9L435.33 152.87H488.99V134.95H418.31L414.31 203.81L430.86 209.63C432.92 206.84 435.8 204.38 439.5 202.26C443.2 200.14 447.72 199.08 453.05 199.08C457.72 199.08 461.99 200.23 465.88 202.54C469.82 204.78 472.94 207.85 475.25 211.73C477.62 215.61 478.8 219.95 478.8 224.74C478.8 229.41 477.65 233.68 475.34 237.57C473.1 241.45 470 244.54 466.06 246.85C462.18 249.15 457.84 250.31 453.05 250.31C449.41 250.31 445.89 249.55 442.5 248.04C439.1 246.46 436.13 244.25 433.59 241.4C431.1 238.55 429.35 235.18 428.31 231.3L410.03 236.21C411.79 242.58 414.73 248.22 418.85 253.13C422.97 257.98 427.92 261.8 433.68 264.59C439.5 267.32 445.78 268.68 452.51 268.68C460.64 268.68 468.16 266.71 475.07 262.77C481.98 258.83 487.53 253.55 491.72 246.94C495.9 240.27 498 232.87 498 224.75C498 216.56 496.15 209.26 492.45 202.83C488.75 196.32 483.68 191.19 477.26 187.43Z" fill="white"/>
<path d="M335.04 106.16C337.35 106.16 339.23 104.28 339.23 101.97C339.23 99.66 337.35 97.78 335.04 97.78C332.73 97.78 330.85 99.66 330.85 101.97C330.85 104.28 332.72 106.16 335.04 106.16Z" stroke="white" stroke-width="0.2"/>
<path d="M335.4 99.6702C335.6 99.6702 335.86 99.7202 336.01 99.7702C336.21 99.8202 336.32 99.9202 336.42 100.08C336.52 100.18 336.62 100.34 336.68 100.49C336.73 100.64 336.78 100.8 336.78 101C336.78 101.31 336.68 101.61 336.52 101.77C336.37 101.97 336.16 102.13 335.96 102.18L336.83 104.02H336.22L335.4 102.28H334.33V104.02H333.82V99.6802H335.4V99.6702ZM334.32 101.81H335.29C335.6 101.81 335.85 101.76 336.01 101.61C336.16 101.46 336.27 101.25 336.27 101C336.27 100.69 336.17 100.49 336.01 100.34C335.85 100.19 335.6 100.14 335.35 100.14H334.38V101.83H334.32V101.81Z" fill="white" stroke="white" stroke-width="0.1" stroke-miterlimit="10"/>
</svg>
