<?xml version="1.0" encoding="UTF-8"?>
<svg version="1.1" xmlns="http://www.w3.org/2000/svg" width="270" height="272">
<path d="M0 0 C0.88921143 0.00045319 1.77842285 0.00090637 2.69458008 0.00137329 C3.62648163 -0.00198532 4.55838318 -0.00534393 5.51852417 -0.00880432 C8.62263296 -0.01835797 11.72668793 -0.02026062 14.83081055 -0.02133179 C16.99063133 -0.02454486 19.15045189 -0.02790898 21.31027222 -0.03141785 C25.85504662 -0.03742259 30.39980199 -0.03925673 34.94458008 -0.03866577 C40.73310456 -0.03856488 46.52150435 -0.05213477 52.30999947 -0.06943798 C56.78165226 -0.08063759 61.25327587 -0.08258244 65.72494125 -0.08205605 C67.85610249 -0.08322737 69.98726469 -0.08760088 72.11841202 -0.09538841 C86.71779547 -0.14367749 101.2233022 -0.0289515 115.32299805 4.27163696 C116.02457031 4.48409058 116.72614258 4.69654419 117.44897461 4.91543579 C142.66266693 12.99958298 161.62140983 31.62788721 173.7331543 54.73501587 C176.90158843 61.00912906 179.21392532 67.29252055 180.82299805 74.14663696 C181.15750977 75.49821899 181.15750977 75.49821899 181.4987793 76.87710571 C186.63528722 101.65114733 181.20082324 127.86832255 167.82299805 149.14663696 C153.15551303 170.53327205 131.81660019 185.77293323 106.24613953 191.18615723 C98.13437842 192.62898055 89.98219332 192.40987069 81.77539062 192.37368774 C79.97083543 192.3731227 78.16627978 192.37344201 76.36172485 192.37457275 C71.49265592 192.37514363 66.6236867 192.36343244 61.75464082 192.34942484 C56.6550919 192.3368731 51.55554038 192.33574349 46.45597839 192.33337402 C36.81255493 192.32717227 27.16917712 192.31077919 17.5257737 192.29067504 C6.54145348 192.26827533 -4.442869 192.25731239 -15.4272064 192.24728417 C-38.01049684 192.22641175 -60.59374683 192.19126126 -83.17700195 192.14663696 C-83.20165045 186.75316708 -83.21983726 181.35972971 -83.23193359 175.96621704 C-83.23697427 174.12994821 -83.24380672 172.29368342 -83.25244141 170.45742798 C-83.26451868 167.82387295 -83.27023276 165.1903708 -83.2746582 162.55679321 C-83.27981949 161.73075089 -83.28498077 160.90470856 -83.29029846 160.05363464 C-83.290494 158.08427329 -83.23904347 156.11502083 -83.17700195 154.14663696 C-81.26820851 152.23784352 -77.83643201 153.01775992 -75.31072998 153.01533508 C-74.22064774 153.01216151 -74.22064774 153.01216151 -73.10854363 153.00892383 C-70.65446023 153.00289555 -68.20042784 153.00392602 -65.74633789 153.00479126 C-63.99390576 153.00176139 -62.24147442 152.99824041 -60.48904419 152.9942627 C-56.70381329 152.98635606 -52.91859189 152.98122198 -49.13335419 152.97797203 C-43.1395936 152.97206895 -37.14589264 152.95553218 -31.15216064 152.93663025 C-29.10044483 152.93029203 -27.04872898 152.92396641 -24.99701309 152.91765308 C-23.9691269 152.91448727 -22.9412407 152.91132146 -21.88220644 152.90805972 C-7.92384186 152.86600023 6.03449627 152.83304623 19.99291992 152.82070923 C29.40021513 152.81230912 38.80736401 152.78974012 48.21458602 152.75135356 C53.19105183 152.73164635 58.16729915 152.71917027 63.14380646 152.72418785 C67.83558005 152.72885999 72.5269412 152.7148897 77.21863174 152.68717575 C78.93214438 152.68030495 80.64570004 152.68009264 82.35921097 152.68737602 C99.63137513 152.75332097 114.7521643 149.08721706 127.69799805 136.83413696 C138.50745368 125.3014447 144.46524333 109.92157584 144.06518555 94.11929321 C142.77813113 78.32173818 136.78580961 63.81204631 124.82299805 53.14663696 C107.68206439 40.12153511 89.65793935 39.84410144 68.99487305 39.73257446 C66.79241227 39.71383713 64.58995847 39.69426186 62.38751221 39.67388916 C56.62717836 39.62283284 50.86682131 39.58306617 45.10638428 39.54574585 C39.21368799 39.50553899 33.32108603 39.45452322 27.4284668 39.40444946 C15.89337706 39.30800441 4.35823374 39.22350025 -7.17700195 39.14663696 C-7.20165045 33.75316708 -7.21983726 28.35972971 -7.23193359 22.96621704 C-7.23697427 21.12994821 -7.24380672 19.29368342 -7.25244141 17.45742798 C-7.26451868 14.82387295 -7.27023276 12.1903708 -7.2746582 9.55679321 C-7.27981949 8.73075089 -7.28498077 7.90470856 -7.29029846 7.05363464 C-7.290494 5.08427329 -7.23904347 3.11502083 -7.17700195 1.14663696 C-5.28485045 -0.74551454 -2.51859449 0.01335568 0 0 Z " fill="#EE9E15" transform="translate(85.177001953125,77.85336303710938)"/>
<path d="M0 0 C25.884375 -0.020625 51.76875 -0.04125 78.4375 -0.0625 C86.6248999 -0.071604 94.8122998 -0.08070801 103.24780273 -0.09008789 C113.20910645 -0.09460449 113.20910645 -0.09460449 117.8653717 -0.09544373 C121.1328346 -0.09637924 124.40028141 -0.10014197 127.66773987 -0.10557556 C131.82760415 -0.11240221 135.98744483 -0.11449721 140.14731419 -0.11307228 C141.67897013 -0.11337051 143.21062683 -0.11537252 144.74227798 -0.11921513 C146.8013189 -0.12414342 148.86037264 -0.12240385 150.91941833 -0.12025452 C152.07626853 -0.12117631 153.23311872 -0.1220981 154.42502499 -0.12304783 C157 -0 157 -0 158 1 C158.10099488 3.72724279 158.13970529 6.42862523 158.1328125 9.15625 C158.13376923 9.97371704 158.13472595 10.79118408 158.13571167 11.63342285 C158.13639345 13.36515378 158.13453929 15.09688724 158.13037109 16.82861328 C158.12502279 19.48866482 158.13031612 22.1485475 158.13671875 24.80859375 C158.13605797 26.48697954 158.1347768 28.16536523 158.1328125 29.84375 C158.13483673 30.64478149 158.13686096 31.44581299 158.13894653 32.27111816 C158.11495079 37.88504921 158.11495079 37.88504921 157 39 C155.46914161 39.09581822 153.93386244 39.12188108 152.40000916 39.12025452 C150.90864189 39.12231651 150.90864189 39.12231651 149.387146 39.12442017 C148.28735413 39.12082489 147.18756226 39.11722961 146.05444336 39.11352539 C144.90337601 39.11367142 143.75230865 39.11381744 142.56636047 39.1139679 C138.74083609 39.11326818 134.91535969 39.10547302 131.08984375 39.09765625 C128.44568407 39.09579228 125.80152404 39.09436828 123.15736389 39.09336853 C116.89584583 39.09025549 110.63434514 39.08204248 104.37283474 39.07201904 C96.54738795 39.05976291 88.72193836 39.05427523 80.89648438 39.04882812 C66.93097603 39.03907704 52.96550563 39.01904676 39 39 C39 76.62 39 114.24 39 153 C48.82007813 152.96519531 58.64015625 152.93039063 68.7578125 152.89453125 C74.97396069 152.87920514 81.19009522 152.86463934 87.40625 152.85351562 C97.2757637 152.8357125 107.14520058 152.81477962 117.01464844 152.77368164 C124.20241761 152.74376489 131.39012447 152.72442158 138.57795417 152.71773452 C142.38330732 152.7138261 146.18848224 152.70465065 149.99377823 152.68280983 C153.57737042 152.66240863 157.1607114 152.65617347 160.74435616 152.66067696 C162.68269687 152.65946144 164.62101038 152.6433383 166.5592804 152.6267395 C173.64466243 152.6519078 178.68162026 152.91197683 184.08203125 157.9375 C184.65308594 158.618125 185.22414062 159.29875 185.8125 160 C186.39644531 160.680625 186.98039063 161.36125 187.58203125 162.0625 C191.00141627 166.73471754 190.5498999 172.47002074 190 178 C188.24343884 183.40017088 184.52533704 186.83226407 180 190 C175.4378603 191.8694262 171.58379339 192.24759566 166.67276001 192.24050903 C165.95881073 192.24222107 165.24486145 192.24393311 164.50927734 192.24569702 C162.12147885 192.24899416 159.73396405 192.23798217 157.34619141 192.22705078 C155.60331926 192.22643784 153.86044661 192.22670556 152.11757469 192.2277813 C147.45618393 192.22823225 142.79489615 192.21665233 138.13352966 192.20256042 C133.75722941 192.19115875 129.38095403 192.19063354 125.00463867 192.18920898 C112.21141218 192.17872018 99.41820478 192.15079781 86.625 192.125 C43.745625 192.063125 43.745625 192.063125 0 192 C0 128.64 0 65.28 0 0 Z " fill="#E85B16" transform="translate(2,2)"/>
<path d="M0 0 C19.24301676 0 19.24301676 0 23.5546875 3.4609375 C28.0461975 8.24378869 29.70091981 12.88346751 30.08984375 19.4453125 C29.90856075 24.60005533 28.83370194 28.98419833 25.30859375 32.859375 C16.69256495 40.4141393 15.02229104 38 0 38 C0 25.46 0 12.92 0 0 Z M9 7 C9 14.92 9 22.84 9 31 C15.54088597 30.72792257 15.54088597 30.72792257 17.8828125 28.30859375 C19.24582176 25.49202565 19.61556249 23.17968102 19.875 20.0625 C19.97554687 19.04285156 20.07609375 18.02320313 20.1796875 16.97265625 C19.96925761 13.49141386 19.05611083 11.78092688 17 9 C13.99341882 6.96328371 12.80903404 7 9 7 Z " fill="#E41F1C" transform="translate(171,2)"/>
<path d="M0 0 C2.97 0 5.94 0 9 0 C12.55182542 8.3032243 15.7820585 16.681086 18.8125 25.1875 C19.42254883 26.88229492 19.42254883 26.88229492 20.04492188 28.61132812 C23 36.86071429 23 36.86071429 23 38 C19.37 38 15.74 38 12 38 C11.67 35.69 11.34 33.38 11 31 C7.04 31.33 3.08 31.66 -1 32 C-1.66 33.98 -2.32 35.96 -3 38 C-6.3 38 -9.6 38 -13 38 C-12.2860926 33.7664686 -10.9794332 29.82782668 -9.53125 25.80078125 C-9.29088013 25.12452194 -9.05051025 24.44826263 -8.80285645 23.75151062 C-8.29678316 22.32977612 -7.78906239 20.90862708 -7.27978516 19.48803711 C-6.49924002 17.31037972 -5.72380573 15.13095481 -4.94921875 12.95117188 C-4.45602536 11.56760271 -3.96254576 10.18413554 -3.46875 8.80078125 C-3.23643677 8.14870193 -3.00412354 7.49662262 -2.76477051 6.82478333 C-1.9282497 4.49423403 -1.10849428 2.21698856 0 0 Z M4 13 C2.515 18.445 2.515 18.445 1 24 C3.31 24 5.62 24 8 24 C7.71758359 22.53984709 7.42373386 21.08190207 7.125 19.625 C6.88136719 18.40683594 6.88136719 18.40683594 6.6328125 17.1640625 C6.13341068 14.81326077 6.13341068 14.81326077 4 13 Z " fill="#E4231E" transform="translate(215,2)"/>
<path d="M0 0 C3.63 0 7.26 0 11 0 C11.83986084 1.93467942 12.67168027 3.87285129 13.5 5.8125 C13.9640625 6.89144531 14.428125 7.97039063 14.90625 9.08203125 C16 12 16 12 16 15 C16.66 15 17.32 15 18 15 C18.18175781 14.41992188 18.36351562 13.83984375 18.55078125 13.2421875 C20.0418106 8.60852707 21.68333576 4.30237645 24 0 C27.3 0 30.6 0 34 0 C32.86829958 3.1291826 31.48602263 5.99892187 29.87109375 8.8984375 C24.42139244 18.82900433 21.57857077 26.57083923 22 38 C18.7 38 15.4 38 12 38 C12.05542969 37.17242187 12.11085937 36.34484375 12.16796875 35.4921875 C12.23541753 23.00067351 6.94786401 13.65036948 0.99389648 2.89501953 C0 1 0 1 0 0 Z " fill="#E42120" transform="translate(233,2)"/>
</svg>
