<svg width="32" height="32" viewBox="0 0 32 32" fill="none" xmlns="http://www.w3.org/2000/svg">
<path d="M18.6667 13.0833C18.6667 14.4419 18.256 15.7019 17.5573 16.7553L13.724 12.9219C13.4733 12.6713 13.3333 12.3326 13.3333 11.9793V6.55125C16.376 7.16859 18.6667 9.85792 18.6667 13.0833ZM10.6667 12.5313V6.55125C7.26667 7.24192 4.80533 10.5193 5.43067 14.2406C5.864 16.8193 7.85733 18.9646 10.4027 19.5633C12.3627 20.0233 14.216 19.6073 15.672 18.6419L11.4467 14.4166C10.9467 13.9166 10.6667 13.2379 10.6667 12.5313ZM25.3333 6.41659H22.6667C21.9293 6.41659 21.3333 7.01392 21.3333 7.74992C21.3333 8.48592 21.9293 9.08325 22.6667 9.08325H25.3333C26.0707 9.08325 26.6667 8.48592 26.6667 7.74992C26.6667 7.01392 26.0707 6.41659 25.3333 6.41659ZM25.3333 11.7499H22.6667C21.9293 11.7499 21.3333 12.3473 21.3333 13.0833C21.3333 13.8193 21.9293 14.4166 22.6667 14.4166H25.3333C26.0707 14.4166 26.6667 13.8193 26.6667 13.0833C26.6667 12.3473 26.0707 11.7499 25.3333 11.7499ZM25.3333 17.0833H22.6667C21.9293 17.0833 21.3333 17.6806 21.3333 18.4166C21.3333 19.1526 21.9293 19.7499 22.6667 19.7499H25.3333C26.0707 19.7499 26.6667 19.1526 26.6667 18.4166C26.6667 17.6806 26.0707 17.0833 25.3333 17.0833ZM32 7.74992V18.4166C32 22.0926 29.0093 25.0833 25.3333 25.0833H17.3333V27.7499H22.6667C23.404 27.7499 24 28.3473 24 29.0833C24 29.8193 23.404 30.4166 22.6667 30.4166H9.33333C8.596 30.4166 8 29.8193 8 29.0833C8 28.3473 8.596 27.7499 9.33333 27.7499H14.6667V25.0833H6.66667C2.99067 25.0833 0 22.0926 0 18.4166V7.74992C0 4.07392 2.99067 1.08325 6.66667 1.08325H25.3333C29.0093 1.08325 32 4.07392 32 7.74992ZM29.3333 7.74992C29.3333 5.54459 27.5387 3.74992 25.3333 3.74992H6.66667C4.46133 3.74992 2.66667 5.54459 2.66667 7.74992V18.4166C2.66667 20.6219 4.46133 22.4166 6.66667 22.4166H25.3333C27.5387 22.4166 29.3333 20.6219 29.3333 18.4166V7.74992Z" fill="#FF8800"/>
</svg>
