<svg width="32" height="32" viewBox="0 0 32 32" fill="none" xmlns="http://www.w3.org/2000/svg">
<g clip-path="url(#clip0_7305_480)">
<path d="M29.5844 0H19.1876C18.6698 0 18.2501 0.41975 18.2501 0.9375V5.24738C18.2501 5.61713 18.4674 5.95238 18.805 6.10325C19.1426 6.25419 19.5373 6.19256 19.8129 5.94581C20.0617 5.72313 20.383 5.60731 20.7186 5.62081C21.3811 5.647 21.9196 6.1865 21.9446 6.849C21.9579 7.20119 21.8313 7.53431 21.5879 7.78706C21.3443 8.04006 21.0168 8.17937 20.6656 8.17937C20.3506 8.17944 20.0477 8.06362 19.8128 7.85331C19.5374 7.60681 19.1426 7.54494 18.8049 7.69594C18.4674 7.84681 18.25 8.18206 18.25 8.55181V12.8125C18.25 13.3303 18.6697 13.75 19.1875 13.75H21.9916C21.9539 13.9681 21.9391 14.1916 21.9481 14.4177C22.0127 16.0524 23.3441 17.3815 24.979 17.4433C25.0203 17.4448 25.0613 17.4456 25.1024 17.4456C25.9227 17.4456 26.6949 17.1349 27.2884 16.5635C27.9119 15.9632 28.2553 15.156 28.2553 14.2907C28.2553 14.1082 28.2395 13.9274 28.2087 13.7501H31.0626C31.5803 13.7501 32.0001 13.3303 32.0001 12.8126V2.41569C32.0001 1.08369 30.9164 0 29.5844 0ZM30.1251 11.875H26.7527C26.3829 11.875 26.0477 12.0924 25.8968 12.43C25.7459 12.7676 25.8076 13.1624 26.0543 13.4379C26.2645 13.6727 26.3803 13.9756 26.3803 14.2907C26.3803 14.6417 26.241 14.9693 25.988 15.2129C25.7353 15.4563 25.4034 15.5824 25.0499 15.5696C24.3874 15.5446 23.8479 15.006 23.8218 14.3436C23.8085 14.0084 23.9239 13.6867 24.1467 13.4379C24.3933 13.1624 24.455 12.7676 24.3041 12.43C24.1532 12.0924 23.8179 11.875 23.4481 11.875H20.1251V10.0079C20.3024 10.0387 20.4831 10.0544 20.6654 10.0544H20.6658C21.5311 10.0544 22.3383 9.71112 22.9386 9.08762C23.5387 8.46444 23.8511 7.64425 23.8183 6.77825C23.7566 5.14331 22.4275 3.81194 20.7926 3.74731C20.5663 3.73819 20.3431 3.75331 20.1251 3.79094V1.875H29.5844C29.8826 1.875 30.1251 2.11756 30.1251 2.41569V11.875Z" fill="#FF8800"/>
<path d="M24.6875 18.25H20.3776C20.0078 18.25 19.6726 18.4674 19.5217 18.805C19.3709 19.1426 19.4325 19.5374 19.6792 19.8129C19.8894 20.0477 20.0053 20.3506 20.0053 20.6658C20.0053 21.0168 19.8659 21.3443 19.6129 21.5879C19.3602 21.8313 19.0287 21.9571 18.6749 21.9446C18.0123 21.9196 17.4729 21.381 17.4467 20.7186C17.4334 20.3834 17.5489 20.0618 17.7716 19.8129C18.0183 19.5374 18.0799 19.1426 17.9291 18.805C17.7782 18.4674 17.4428 18.25 17.0731 18.25H13.75V16.3834C13.9681 16.421 14.1917 16.436 14.4176 16.4269C16.0524 16.3623 17.3815 15.0309 17.4433 13.396C17.476 12.53 17.1636 11.7098 16.5635 11.0866C15.9632 10.4631 15.156 10.1198 14.2907 10.1198C14.1082 10.1198 13.9274 10.1356 13.7501 10.1664V7.3125C13.7501 6.79475 13.3303 6.375 12.8126 6.375H2.41569C1.08369 6.375 0 7.45869 0 8.79069V29.5842C0 30.9163 1.08369 32 2.41569 32H23.2092C24.5413 32 25.625 30.9163 25.625 29.5843V19.1875C25.625 18.6697 25.2053 18.25 24.6875 18.25ZM1.875 8.79069C1.875 8.4925 2.11756 8.25 2.41569 8.25H11.875V11.6224C11.875 11.9922 12.0924 12.3274 12.43 12.4782C12.7675 12.6292 13.1624 12.5675 13.4379 12.3208C13.6727 12.1106 13.9756 11.9948 14.2907 11.9948C14.6417 11.9948 14.9693 12.1341 15.2129 12.3871C15.4563 12.6398 15.5829 12.9729 15.5696 13.3251C15.5446 13.9876 15.006 14.5271 14.3436 14.5533C14.0085 14.5665 13.6867 14.4511 13.4379 14.2284C13.1624 13.9818 12.7677 13.92 12.43 14.0709C12.0924 14.2218 11.8751 14.5571 11.8751 14.9268V18.25H10.008C10.0388 18.0726 10.0545 17.8918 10.0545 17.7093C10.0545 16.844 9.71119 16.0368 9.08769 15.4366C8.4645 14.8364 7.64381 14.5229 6.77831 14.5568C5.14338 14.6186 3.812 15.9476 3.74738 17.5824C3.73844 17.8084 3.75337 18.0319 3.79094 18.2501H1.875V8.79069ZM1.875 29.5843V20.125H5.24738C5.61719 20.125 5.95238 19.9076 6.10325 19.57C6.25413 19.2324 6.1925 18.8376 5.94575 18.5621C5.723 18.3133 5.60756 17.9916 5.62081 17.6565C5.647 16.994 6.1865 16.4554 6.849 16.4304C7.20037 16.4184 7.53425 16.5438 7.78706 16.7872C8.04006 17.0308 8.17937 17.3582 8.17937 17.7093C8.17937 18.0245 8.06356 18.3274 7.85331 18.5622C7.60675 18.8377 7.54506 19.2325 7.69594 19.5701C7.84681 19.9076 8.18219 20.125 8.55194 20.125H11.875V21.9916C11.6569 21.954 11.4333 21.9391 11.2074 21.9481C9.57256 22.0127 8.2435 23.3441 8.18175 24.979C8.149 25.845 8.46144 26.6652 9.0615 27.2884C9.66181 27.9119 10.469 28.2552 11.3343 28.2552C11.5168 28.2552 11.6976 28.2394 11.8749 28.2086V30.125H2.41569C2.11756 30.125 1.875 29.8824 1.875 29.5843ZM23.75 29.5843C23.75 29.8825 23.5074 30.125 23.2093 30.125H13.75V26.7526C13.75 26.3828 13.5326 26.0476 13.195 25.8967C12.8575 25.7458 12.4626 25.8076 12.1871 26.0542C11.9523 26.2644 11.6494 26.3803 11.3343 26.3803C10.9833 26.3803 10.6557 26.2409 10.4121 25.9879C10.1687 25.7352 10.0421 25.4021 10.0554 25.0499C10.0804 24.3874 10.619 23.8479 11.2814 23.8217C11.6158 23.8084 11.9382 23.9239 12.1871 24.1466C12.4626 24.3933 12.8573 24.4551 13.195 24.3041C13.5326 24.1532 13.7499 23.8179 13.7499 23.4482V20.125H15.6166C15.5789 20.3431 15.5641 20.5666 15.573 20.7926C15.6376 22.4274 16.969 23.7565 18.6039 23.8183C19.4696 23.8519 20.2901 23.5386 20.9133 22.9385C21.5368 22.3382 21.8801 21.531 21.8801 20.6658C21.8801 20.4833 21.8644 20.3024 21.8336 20.1251H23.75V29.5843Z" fill="#FF8800"/>
</g>
<defs>
<clipPath id="clip0_7305_480">
<rect width="32" height="32" fill="white"/>
</clipPath>
</defs>
</svg>
