<svg width="32" height="32" viewBox="0 0 32 32" fill="none" xmlns="http://www.w3.org/2000/svg">
<g clip-path="url(#clip0_7305_466)">
<path d="M10.6667 21.3333C10.6667 22.4373 9.77067 23.3333 8.66667 23.3333C7.56267 23.3333 6.66667 22.4373 6.66667 21.3333C6.66667 20.2293 7.56267 19.3333 8.66667 19.3333C9.77067 19.3333 10.6667 20.2293 10.6667 21.3333ZM8.66667 6C7.56267 6 6.66667 6.896 6.66667 8C6.66667 9.104 7.56267 10 8.66667 10C9.77067 10 10.6667 9.104 10.6667 8C10.6667 6.896 9.77067 6 8.66667 6ZM8.66667 12.6667C7.56267 12.6667 6.66667 13.5627 6.66667 14.6667C6.66667 15.7707 7.56267 16.6667 8.66667 16.6667C9.77067 16.6667 10.6667 15.7707 10.6667 14.6667C10.6667 13.5627 9.77067 12.6667 8.66667 12.6667ZM25.3333 0H6.66667C2.99067 0 0 2.99067 0 6.66667V24C0 27.676 2.99067 30.6667 6.66667 30.6667H10.6667C11.4027 30.6667 12 30.0707 12 29.3333C12 28.596 11.4027 28 10.6667 28H6.66667C4.46133 28 2.66667 26.2053 2.66667 24V6.66667C2.66667 4.46133 4.46133 2.66667 6.66667 2.66667H25.3333C27.5387 2.66667 29.3333 4.46133 29.3333 6.66667V18.6667C29.3333 19.404 29.9307 20 30.6667 20C31.4027 20 32 19.404 32 18.6667V6.66667C32 2.99067 29.0093 0 25.3333 0ZM14.6667 9.33333H24C24.736 9.33333 25.3333 8.736 25.3333 8C25.3333 7.264 24.736 6.66667 24 6.66667H14.6667C13.9307 6.66667 13.3333 7.264 13.3333 8C13.3333 8.736 13.9307 9.33333 14.6667 9.33333ZM14.6667 16H24C24.736 16 25.3333 15.4027 25.3333 14.6667C25.3333 13.9307 24.736 13.3333 24 13.3333H14.6667C13.9307 13.3333 13.3333 13.9307 13.3333 14.6667C13.3333 15.4027 13.9307 16 14.6667 16ZM31.6067 24.732C32.128 25.5027 32.128 26.4973 31.6067 27.268C30.412 29.0347 27.6613 32 22.6667 32C17.672 32 14.9213 29.0347 13.7253 27.268C13.204 26.496 13.204 25.5013 13.7253 24.732C14.92 22.9653 17.6693 20 22.6653 20C27.6613 20 30.412 22.9653 31.6067 24.732ZM29.24 26C28.2667 24.6587 26.2227 22.6667 22.6667 22.6667C19.1107 22.6667 17.0653 24.66 16.0933 26C17.0653 27.3413 19.1107 29.3333 22.6667 29.3333C26.2227 29.3333 28.2667 27.3413 29.24 26ZM22.6667 24C21.5627 24 20.6667 24.896 20.6667 26C20.6667 27.104 21.5627 28 22.6667 28C23.7707 28 24.6667 27.104 24.6667 26C24.6667 24.896 23.7707 24 22.6667 24Z" fill="#FF8800"/>
</g>
<defs>
<clipPath id="clip0_7305_466">
<rect width="32" height="32" fill="white"/>
</clipPath>
</defs>
</svg>
